<svg data-v-423bf9ae="" xmlns="http://www.w3.org/2000/svg" viewBox="0 0 361.99197436016755 163" class="iconAbove"><!----><!----><defs data-v-423bf9ae=""><linearGradient data-v-423bf9ae="" gradientTransform="rotate(25)" id="e36dd16e-bec6-4853-a820-81ff4c1800a7" x1="0%" y1="0%" x2="100%" y2="0%"><stop data-v-423bf9ae="" offset="0%" style="stop-color: rgb(218, 218, 218); stop-opacity: 1;"></stop><stop data-v-423bf9ae="" offset="100%" style="stop-color: rgb(15, 128, 185); stop-opacity: 1;"></stop></linearGradient></defs><g data-v-423bf9ae="" id="62e2c717-dc71-45a0-82cd-abd8f510ac4e" fill="url(#e36dd16e-bec6-4853-a820-81ff4c1800a7)" transform="matrix(6.03621768951416,0,0,6.03621768951416,-6.3380279541015625,86.09859466552734)"><path d="M2.30 12.74L2.30 12.74Q1.63 12.74 1.34 12.37L1.34 12.37L1.34 12.37Q1.05 12.00 1.05 11.24L1.05 11.24L1.05 2.95L2.37 2.95L2.37 11.15L2.37 11.15Q2.37 11.27 2.48 11.42L2.48 11.42L2.48 11.42Q2.58 11.57 2.81 11.57L2.81 11.57L2.81 11.57Q3.12 11.57 3.38 11.51L3.38 11.51L3.38 12.61L3.38 12.61Q3.14 12.66 2.85 12.70L2.85 12.70L2.85 12.70Q2.56 12.74 2.30 12.74L2.30 12.74ZM7.49 12.72L7.49 12.72Q6.43 12.72 5.69 12.24L5.69 12.24L5.69 12.24Q4.96 11.76 4.59 10.97L4.59 10.97L4.59 10.97Q4.22 10.18 4.22 9.22L4.22 9.22L4.22 9.22Q4.22 8.29 4.58 7.47L4.58 7.47L4.58 7.47Q4.93 6.66 5.64 6.16L5.64 6.16L5.64 6.16Q6.35 5.66 7.37 5.66L7.37 5.66L7.37 5.66Q8.45 5.66 9.13 6.16L9.13 6.16L9.13 6.16Q9.80 6.65 10.10 7.42L10.10 7.42L10.10 7.42Q10.39 8.19 10.39 9.04L10.39 9.04L10.39 9.04Q10.39 9.41 10.35 9.63L10.35 9.63L5.63 9.63L5.63 9.63Q5.67 10.48 6.14 11.01L6.14 11.01L6.14 11.01Q6.61 11.54 7.49 11.54L7.49 11.54L7.49 11.54Q8.04 11.54 8.47 11.37L8.47 11.37L8.47 11.37Q8.91 11.20 9.27 10.81L9.27 10.81L10.19 11.58L10.19 11.58Q9.63 12.17 8.97 12.44L8.97 12.44L8.97 12.44Q8.32 12.72 7.49 12.72L7.49 12.72ZM5.63 8.62L9.11 8.62L9.11 8.62Q9.06 7.79 8.62 7.27L8.62 7.27L8.62 7.27Q8.19 6.76 7.36 6.76L7.36 6.76L7.36 6.76Q6.57 6.76 6.14 7.28L6.14 7.28L6.14 7.28Q5.70 7.80 5.63 8.62L5.63 8.62ZM14.12 12.74L14.12 12.74Q13.19 12.74 12.72 12.22L12.72 12.22L12.72 12.22Q12.24 11.69 12.24 10.76L12.24 10.76L12.24 6.88L11.14 6.88L11.14 5.78L12.26 5.78L12.26 4.16L13.56 3.10L13.56 5.78L15.29 5.78L15.29 6.88L13.56 6.88L13.56 10.62L13.56 10.62Q13.56 11.13 13.78 11.37L13.78 11.37L13.78 11.37Q14.01 11.61 14.38 11.61L14.38 11.61L14.38 11.61Q14.57 11.61 14.79 11.55L14.79 11.55L14.79 11.55Q15.00 11.48 15.19 11.40L15.19 11.40L15.19 12.57L15.19 12.57Q15.03 12.64 14.73 12.69L14.73 12.69L14.73 12.69Q14.44 12.74 14.12 12.74L14.12 12.74ZM18.92 12.61L16.11 2.95L17.55 2.95L19.73 10.71L22.01 3.51L23.11 3.51L25.39 10.71L27.56 2.95L29.00 2.95L26.20 12.61L24.78 12.61L22.57 5.72L20.33 12.61L18.92 12.61ZM30.70 12.61L30.70 2.95L32.09 2.95L32.09 7.16L36.66 7.16L36.66 2.95L38.06 2.95L38.06 12.61L36.66 12.61L36.66 8.39L32.09 8.39L32.09 12.61L30.70 12.61ZM44.60 12.74L44.60 12.74Q43.13 12.74 42.13 12.07L42.13 12.07L42.13 12.07Q41.12 11.40 40.62 10.27L40.62 10.27L40.62 10.27Q40.12 9.15 40.12 7.77L40.12 7.77L40.12 7.77Q40.12 6.40 40.62 5.27L40.62 5.27L40.62 5.27Q41.12 4.14 42.13 3.47L42.13 3.47L42.13 3.47Q43.13 2.80 44.60 2.80L44.60 2.80L44.60 2.80Q46.07 2.80 47.09 3.47L47.09 3.47L47.09 3.47Q48.10 4.14 48.60 5.27L48.60 5.27L48.60 5.27Q49.10 6.40 49.10 7.77L49.10 7.77L49.10 7.77Q49.10 9.15 48.60 10.27L48.60 10.27L48.60 10.27Q48.10 11.40 47.09 12.07L47.09 12.07L47.09 12.07Q46.07 12.74 44.60 12.74L44.60 12.74ZM44.60 11.49L44.60 11.49Q45.66 11.49 46.35 10.99L46.35 10.99L46.35 10.99Q47.04 10.48 47.36 9.64L47.36 9.64L47.36 9.64Q47.68 8.80 47.68 7.77L47.68 7.77L47.68 7.77Q47.68 6.75 47.36 5.91L47.36 5.91L47.36 5.91Q47.04 5.07 46.35 4.57L46.35 4.57L46.35 4.57Q45.66 4.06 44.60 4.06L44.60 4.06L44.60 4.06Q43.55 4.06 42.86 4.57L42.86 4.57L42.86 4.57Q42.18 5.07 41.86 5.91L41.86 5.91L41.86 5.91Q41.54 6.75 41.54 7.77L41.54 7.77L41.54 7.77Q41.54 8.80 41.86 9.64L41.86 9.64L41.86 9.64Q42.18 10.48 42.86 10.99L42.86 10.99L42.86 10.99Q43.55 11.49 44.60 11.49L44.60 11.49ZM51.16 12.61L51.16 2.95L52.55 2.95L52.55 12.61L51.16 12.61ZM57.85 12.71L57.85 12.71Q57.01 12.71 56.26 12.41L56.26 12.41L56.26 12.41Q55.51 12.10 55.00 11.49L55.00 11.49L55.00 11.49Q54.49 10.88 54.35 10.01L54.35 10.01L55.69 9.65L55.69 9.65Q55.75 10.26 56.06 10.67L56.06 10.67L56.06 10.67Q56.36 11.08 56.83 11.28L56.83 11.28L56.83 11.28Q57.31 11.48 57.87 11.48L57.87 11.48L57.87 11.48Q58.70 11.48 59.18 11.08L59.18 11.08L59.18 11.08Q59.66 10.69 59.66 9.99L59.66 9.99L59.66 9.99Q59.66 9.50 59.38 9.15L59.38 9.15L59.38 9.15Q59.10 8.81 58.69 8.59L58.69 8.59L58.69 8.59Q58.28 8.36 57.58 8.07L57.58 8.07L57.58 8.07Q56.75 7.72 56.23 7.42L56.23 7.42L56.23 7.42Q55.71 7.12 55.35 6.62L55.35 6.62L55.35 6.62Q54.99 6.11 54.99 5.35L54.99 5.35L54.99 5.35Q54.99 4.58 55.36 4.00L55.36 4.00L55.36 4.00Q55.74 3.42 56.38 3.11L56.38 3.11L56.38 3.11Q57.03 2.80 57.79 2.80L57.79 2.80L57.79 2.80Q58.69 2.80 59.41 3.20L59.41 3.20L59.41 3.20Q60.14 3.60 60.59 4.40L60.59 4.40L59.49 5.10L59.49 5.10Q59.21 4.58 58.76 4.30L58.76 4.30L58.76 4.30Q58.30 4.03 57.76 4.03L57.76 4.03L57.76 4.03Q57.38 4.03 57.06 4.18L57.06 4.18L57.06 4.18Q56.75 4.33 56.55 4.61L56.55 4.61L56.55 4.61Q56.36 4.89 56.36 5.26L56.36 5.26L56.36 5.26Q56.36 5.68 56.62 5.98L56.62 5.98L56.62 5.98Q56.87 6.28 57.25 6.48L57.25 6.48L57.25 6.48Q57.63 6.68 58.30 6.97L58.30 6.97L58.30 6.97Q59.17 7.33 59.72 7.65L59.72 7.65L59.72 7.65Q60.26 7.96 60.64 8.51L60.64 8.51L60.64 8.51Q61.02 9.06 61.02 9.87L61.02 9.87L61.02 9.87Q61.02 10.73 60.61 11.37L60.61 11.37L60.61 11.37Q60.19 12.02 59.47 12.37L59.47 12.37L59.47 12.37Q58.74 12.71 57.85 12.71L57.85 12.71Z"></path></g><defs data-v-423bf9ae=""><linearGradient data-v-423bf9ae="" gradientTransform="rotate(25)" id="c8d33610-446a-4757-b2b0-87ee5413e4e2" x1="0%" y1="0%" x2="100%" y2="0%"><stop data-v-423bf9ae="" offset="0%" style="stop-color: rgb(15, 128, 185); stop-opacity: 1;"></stop><stop data-v-423bf9ae="" offset="100%" style="stop-color: rgb(218, 218, 218); stop-opacity: 1;"></stop></linearGradient></defs><g data-v-423bf9ae="" id="9fd8a661-015f-4872-964f-a5e59b5cb902" transform="matrix(1.6666666269302368,0,0,1.6666666269302368,127.6646728515625,-8.333332061767578)" stroke="none" fill="url(#c8d33610-446a-4757-b2b0-87ee5413e4e2)"><path d="M63 59a1 1 0 0 1-1-1V10a1 1 0 1 1 2 0v48a1 1 0 0 1-1 1zM10.026 9c-.552 0-1.005-.447-1.005-1s.442-1 .994-1h.011a1 1 0 1 1 0 2zM7.026 9c-.552 0-1.005-.447-1.005-1s.442-1 .994-1h.011a1 1 0 1 1 0 2zM4.026 9c-.552 0-1.005-.447-1.005-1s.442-1 .994-1h.011a1 1 0 1 1 0 2z"></path><path d="M63 9a1 1 0 0 1-1-1 1 1 0 0 0-1-1 1 1 0 1 1 0-2c1.654 0 3 1.346 3 3a1 1 0 0 1-1 1z"></path><path d="M63 11a1 1 0 0 1-1-1V8a1 1 0 1 1 2 0v2a1 1 0 0 1-1 1zM.998 9a1 1 0 0 1-1-1c0-1.654 1.346-3 3-3a1 1 0 1 1 0 2 1 1 0 0 0-1 1 1 1 0 0 1-1 1z"></path><path d="M.998 11a1 1 0 0 1-1-1V8a1 1 0 1 1 2 0v2a1 1 0 0 1-1 1zM61.002 7H3.014a1 1 0 1 1 0-2h57.988a1 1 0 1 1 0 2z"></path><path d="M63.002 11H1.014a1 1 0 1 1 0-2h61.988a1 1 0 1 1 0 2z"></path><path d="M.998 59a1 1 0 0 1-1-1V10a1 1 0 1 1 2 0v48a1 1 0 0 1-1 1z"></path><path d="M63 59H.998a1 1 0 1 1 0-2H63a1 1 0 1 1 0 2zM58 22H6a1 1 0 0 1-1-1v-6a1 1 0 0 1 1-1h52a1 1 0 0 1 1 1v6a1 1 0 0 1-1 1zM7 20h50v-4H7v4z"></path><path d="M52 22a1 1 0 0 1-1-1v-6a1 1 0 1 1 2 0v6a1 1 0 0 1-1 1zM6.03 37c-.553 0-1.005-.447-1.005-1s.442-1 .994-1h.011a1 1 0 1 1 0 2zM13 31a1 1 0 0 1-1-1 1 1 0 0 0-2 0 1 1 0 1 1-2 0c0-1.654 1.346-3 3-3s3 1.346 3 3a1 1 0 0 1-1 1zM11 37c-1.654 0-3-1.346-3-3a1 1 0 1 1 2 0 1 1 0 0 0 2 0 1 1 0 1 1 2 0c0 1.654-1.346 3-3 3zM20 31a1 1 0 0 1-1-1 1 1 0 0 0-2 0 1 1 0 1 1-2 0c0-1.654 1.346-3 3-3s3 1.346 3 3a1 1 0 0 1-1 1zM18 37c-1.654 0-3-1.346-3-3a1 1 0 1 1 2 0 1 1 0 0 0 2 0 1 1 0 1 1 2 0c0 1.654-1.346 3-3 3z"></path><path d="M9 35a1 1 0 0 1-1-1v-4a1 1 0 1 1 2 0v4a1 1 0 0 1-1 1zM16 35a1 1 0 0 1-1-1v-4a1 1 0 1 1 2 0v4a1 1 0 0 1-1 1zM20 35a1 1 0 0 1-1-1v-4a1 1 0 1 1 2 0v4a1 1 0 0 1-1 1zM23 37a1 1 0 0 1-1-1v-8a1 1 0 1 1 2 0v8a1 1 0 0 1-1 1z"></path><path d="M26.001 34a.998.998 0 0 1-.858-.485l-3-5a1 1 0 1 1 1.715-1.029l3 5A1 1 0 0 1 26.001 34z"></path><path d="M25.999 34a1 1 0 0 1-.857-1.515l3-5a1 1 0 0 1 1.715 1.029l-3 5a.997.997 0 0 1-.858.486z"></path><path d="M29 37a1 1 0 0 1-1-1v-8a1 1 0 1 1 2 0v8a1 1 0 0 1-1 1zM53.5 37c-3.032 0-5.5-2.468-5.5-5.5s2.468-5.5 5.5-5.5 5.5 2.468 5.5 5.5-2.468 5.5-5.5 5.5zm0-9c-1.93 0-3.5 1.57-3.5 3.5s1.57 3.5 3.5 3.5 3.5-1.57 3.5-3.5-1.57-3.5-3.5-3.5z"></path><path d="M53 34a.997.997 0 0 1-.707-.293l-1-1a.999.999 0 1 1 1.414-1.414l1 1A.999.999 0 0 1 53 34z"></path><path d="M53 34a.999.999 0 0 1-.707-1.707l2-2a.999.999 0 1 1 1.414 1.414l-2 2A.997.997 0 0 1 53 34zM44 31h-8a1 1 0 1 1 0-2h8a1 1 0 1 1 0 2zM40 34h-4a1 1 0 1 1 0-2h4a1 1 0 1 1 0 2zM6.03 52c-.553 0-1.005-.447-1.005-1s.442-1 .994-1h.011a1 1 0 1 1 0 2zM9 52a1 1 0 0 1-1-1v-8a1 1 0 1 1 2 0v8a1 1 0 0 1-1 1z"></path><path d="M13.001 52a1 1 0 0 1-.896-.553l-4-8a1 1 0 0 1 1.789-.895l4 8A1 1 0 0 1 13.001 52z"></path><path d="M13 52a1 1 0 0 1-1-1v-8a1 1 0 1 1 2 0v8a1 1 0 0 1-1 1zM53.5 52c-3.032 0-5.5-2.468-5.5-5.5s2.468-5.5 5.5-5.5 5.5 2.468 5.5 5.5-2.468 5.5-5.5 5.5zm0-9c-1.93 0-3.5 1.57-3.5 3.5s1.57 3.5 3.5 3.5 3.5-1.57 3.5-3.5-1.57-3.5-3.5-3.5z"></path><g><path d="M44 46h-8a1 1 0 1 1 0-2h8a1 1 0 1 1 0 2z"></path></g><g><path d="M40 49h-4a1 1 0 1 1 0-2h4a1 1 0 1 1 0 2z"></path></g><g><path d="M16 52a1 1 0 0 1-1-1v-8a1 1 0 1 1 2 0v8a1 1 0 0 1-1 1z"></path></g><g><path d="M19 44h-3a1 1 0 1 1 0-2h3a1 1 0 1 1 0 2z"></path></g><g><path d="M18 48h-2a1 1 0 1 1 0-2h2a1 1 0 1 1 0 2z"></path></g><g><path d="M19 52h-3a1 1 0 1 1 0-2h3a1 1 0 1 1 0 2z"></path></g><g><path d="M24 52a1 1 0 0 1-1-1v-8a1 1 0 1 1 2 0v8a1 1 0 0 1-1 1z"></path></g><g><path d="M26 44h-4a1 1 0 1 1 0-2h4a1 1 0 1 1 0 2z"></path></g><g><path d="M55 49a.997.997 0 0 1-.707-.293l-3-3a.999.999 0 1 1 1.414-1.414l3 3A.999.999 0 0 1 55 49z"></path></g><g><path d="M52 49a.999.999 0 0 1-.707-1.707l3-3a.999.999 0 1 1 1.414 1.414l-3 3A.997.997 0 0 1 52 49z"></path></g><g><path d="M27 19H8.996a1 1 0 1 1 0-2H27a1 1 0 1 1 0 2z"></path></g></g><!----></svg>